<mxfile host="app.diagrams.net" modified="2023-05-26T09:18:15.326Z" agent="Mozilla/5.0 (Windows NT 10.0; Win64; x64) AppleWebKit/537.36 (KHTML, like Gecko) Chrome/113.0.0.0 Safari/537.36 Edg/113.0.1774.50" version="21.3.4" etag="uFnYiv316xGMicSVO7yC" type="github">
  <diagram name="Page-1" id="buBhydeOv-H2RT8KWjxe">
    <mxGraphModel>
      <root>
        <mxCell id="0" />
        <mxCell id="1" parent="0" />
        <mxCell id="2" value="ChatBot conversation flow" style="ellipse;aspect=fixed;strokeWidth=2;whiteSpace=wrap;" vertex="1" parent="1">
          <mxGeometry x="323" y="102" width="210" height="210" as="geometry" />
        </mxCell>
        <mxCell id="3" value="How can I help you?" style="rounded=1;absoluteArcSize=1;arcSize=14;whiteSpace=wrap;strokeWidth=2;" vertex="1" parent="1">
          <mxGeometry x="591" y="201" width="162" height="37" as="geometry" />
        </mxCell>
        <mxCell id="4" value="Can you show me products?" style="rounded=1;absoluteArcSize=1;arcSize=14;whiteSpace=wrap;strokeWidth=2;" vertex="1" parent="1">
          <mxGeometry x="812" y="198" width="217" height="37" as="geometry" />
        </mxCell>
        <mxCell id="5" value="Can you place an order for me?" style="rounded=1;absoluteArcSize=1;arcSize=14;whiteSpace=wrap;strokeWidth=2;" vertex="1" parent="1">
          <mxGeometry x="668" y="271" width="212" height="55" as="geometry" />
        </mxCell>
        <mxCell id="6" value="Can you provide some information on my order?" style="rounded=1;absoluteArcSize=1;arcSize=14;whiteSpace=wrap;strokeWidth=2;" vertex="1" parent="1">
          <mxGeometry x="682" y="114" width="202" height="55" as="geometry" />
        </mxCell>
        <mxCell id="7" value="What type of products are you interested in?" style="rounded=1;absoluteArcSize=1;arcSize=14;whiteSpace=wrap;strokeWidth=2;" vertex="1" parent="1">
          <mxGeometry x="311" y="282" width="209" height="55" as="geometry" />
        </mxCell>
        <mxCell id="8" value="Electronics" style="rounded=1;absoluteArcSize=1;arcSize=14;whiteSpace=wrap;strokeWidth=2;" vertex="1" parent="1">
          <mxGeometry x="518" y="359" width="99" height="37" as="geometry" />
        </mxCell>
        <mxCell id="9" value="Clothing" style="rounded=1;absoluteArcSize=1;arcSize=14;whiteSpace=wrap;strokeWidth=2;" vertex="1" parent="1">
          <mxGeometry x="182" y="343" width="79" height="37" as="geometry" />
        </mxCell>
        <mxCell id="10" value="Home goods" style="rounded=1;absoluteArcSize=1;arcSize=14;whiteSpace=wrap;strokeWidth=2;" vertex="1" parent="1">
          <mxGeometry x="329" y="387" width="106" height="37" as="geometry" />
        </mxCell>
        <mxCell id="11" value="Have you shopped with us before?" style="rounded=1;absoluteArcSize=1;arcSize=14;whiteSpace=wrap;strokeWidth=2;" vertex="1" parent="1">
          <mxGeometry x="163" y="112" width="206" height="55" as="geometry" />
        </mxCell>
        <mxCell id="12" value="Yes" style="rounded=1;absoluteArcSize=1;arcSize=14;whiteSpace=wrap;strokeWidth=2;" vertex="1" parent="1">
          <mxGeometry x="145" y="43" width="43" height="37" as="geometry" />
        </mxCell>
        <mxCell id="13" value="No" style="rounded=1;absoluteArcSize=1;arcSize=14;whiteSpace=wrap;strokeWidth=2;" vertex="1" parent="1">
          <mxGeometry x="275" y="24" width="39" height="37" as="geometry" />
        </mxCell>
        <mxCell id="14" value="Do you have an account with us?" style="rounded=1;absoluteArcSize=1;arcSize=14;whiteSpace=wrap;strokeWidth=2;" vertex="1" parent="1">
          <mxGeometry x="72" y="207" width="190" height="55" as="geometry" />
        </mxCell>
        <mxCell id="15" value="Yes" style="rounded=1;absoluteArcSize=1;arcSize=14;whiteSpace=wrap;strokeWidth=2;" vertex="1" parent="1">
          <mxGeometry x="15" y="156" width="43" height="37" as="geometry" />
        </mxCell>
        <mxCell id="16" value="No" style="rounded=1;absoluteArcSize=1;arcSize=14;whiteSpace=wrap;strokeWidth=2;" vertex="1" parent="1">
          <mxGeometry x="50" y="291" width="39" height="37" as="geometry" />
        </mxCell>
        <mxCell id="17" value="Please enter your account information" style="rounded=1;absoluteArcSize=1;arcSize=14;whiteSpace=wrap;strokeWidth=2;" vertex="1" parent="1">
          <mxGeometry x="414" y="97" width="207" height="55" as="geometry" />
        </mxCell>
        <mxCell id="18" value="Username" style="rounded=1;absoluteArcSize=1;arcSize=14;whiteSpace=wrap;strokeWidth=2;" vertex="1" parent="1">
          <mxGeometry x="578" y="27" width="91" height="37" as="geometry" />
        </mxCell>
        <mxCell id="19" value="Password" style="rounded=1;absoluteArcSize=1;arcSize=14;whiteSpace=wrap;strokeWidth=2;" vertex="1" parent="1">
          <mxGeometry x="413" y="15" width="85" height="37" as="geometry" />
        </mxCell>
        <mxCell id="20" style="endArrow=none" edge="1" parent="1" source="2" target="3">
          <mxGeometry relative="1" as="geometry" />
        </mxCell>
        <mxCell id="21" style="endArrow=none" edge="1" parent="1" source="2" target="7">
          <mxGeometry relative="1" as="geometry" />
        </mxCell>
        <mxCell id="22" style="endArrow=none" edge="1" parent="1" source="2" target="11">
          <mxGeometry relative="1" as="geometry" />
        </mxCell>
        <mxCell id="23" style="endArrow=none" edge="1" parent="1" source="2" target="14">
          <mxGeometry relative="1" as="geometry" />
        </mxCell>
        <mxCell id="24" style="endArrow=none" edge="1" parent="1" source="2" target="17">
          <mxGeometry relative="1" as="geometry" />
        </mxCell>
        <mxCell id="25" style="endArrow=none" edge="1" parent="1" source="3" target="4">
          <mxGeometry relative="1" as="geometry" />
        </mxCell>
        <mxCell id="26" style="endArrow=none" edge="1" parent="1" source="3" target="5">
          <mxGeometry relative="1" as="geometry" />
        </mxCell>
        <mxCell id="27" style="endArrow=none" edge="1" parent="1" source="3" target="6">
          <mxGeometry relative="1" as="geometry" />
        </mxCell>
        <mxCell id="28" style="endArrow=none" edge="1" parent="1" source="7" target="8">
          <mxGeometry relative="1" as="geometry" />
        </mxCell>
        <mxCell id="29" style="endArrow=none" edge="1" parent="1" source="7" target="9">
          <mxGeometry relative="1" as="geometry" />
        </mxCell>
        <mxCell id="30" style="endArrow=none" edge="1" parent="1" source="7" target="10">
          <mxGeometry relative="1" as="geometry" />
        </mxCell>
        <mxCell id="31" style="endArrow=none" edge="1" parent="1" source="11" target="12">
          <mxGeometry relative="1" as="geometry" />
        </mxCell>
        <mxCell id="32" style="endArrow=none" edge="1" parent="1" source="11" target="13">
          <mxGeometry relative="1" as="geometry" />
        </mxCell>
        <mxCell id="33" style="endArrow=none" edge="1" parent="1" source="14" target="15">
          <mxGeometry relative="1" as="geometry" />
        </mxCell>
        <mxCell id="34" style="endArrow=none" edge="1" parent="1" source="14" target="16">
          <mxGeometry relative="1" as="geometry" />
        </mxCell>
        <mxCell id="35" style="endArrow=none" edge="1" parent="1" source="17" target="18">
          <mxGeometry relative="1" as="geometry" />
        </mxCell>
        <mxCell id="36" style="endArrow=none" edge="1" parent="1" source="17" target="19">
          <mxGeometry relative="1" as="geometry" />
        </mxCell>
      </root>
    </mxGraphModel>
  </diagram>
</mxfile>
